<svg id="visual" viewBox="0 0 900 600" width="900" height="600" xmlns="http://www.w3.org/2000/svg" xmlns:xlink="http://www.w3.org/1999/xlink" version="1.1"><rect x="0" y="0" width="900" height="600" fill="#f8fafc"></rect><g transform="translate(420.76599484170026 291.33077185940465)">
<path d="M162 -170.4C223.5 -141.4 296.4 -103.3 322.3 -43.9C348.1 15.4 326.9 96 279 144.2C231.1 192.5 156.4 208.6 89.2 223.8C22 239 -37.7 253.4 -91.3 239.1C-144.9 224.7 -192.4 181.6 -226.7 128.1C-261 74.5 -282.2 10.5 -272.6 -48.8C-263.1 -108.2 -222.8 -162.9 -172.3 -193.8C-121.7 -224.7 -60.9 -231.9 -5.3 -225.5C50.2 -219.2 100.4 -199.4 162 -170.4" fill="url(#grad1)"></path></g>
  <defs>
    <linearGradient id="grad1" x1="0%" y1="0%" x2="100%" y2="100%">
      <stop offset="0%" style="stop-color:#fdba74;stop-opacity:0.4" />
      <stop offset="50%" style="stop-color:#fbcfe8;stop-opacity:0.4" />
      <stop offset="100%" style="stop-color:#ddd6fe;stop-opacity:0.4" />
    </linearGradient>
  </defs>
</svg>